<svg xmlns="http://www.w3.org/2000/svg" id="Layer_1" height="100" viewBox="0 0 512 512" width="100" data-name="Layer 1"><path d="m105.916 320.276c5.948 63.877.044 168.331-.016 169.379a6 6 0 0 0 5.99 6.345h153.27a6 6 0 0 0 6-6v-54.62c0-9.695 7.582-17.928 16.929-18.419l51.173.268a44.175 44.175 0 0 0 45.4-44.159v-50.38h49.91a10 10 0 0 0 9.346-13.57l-29.481-77.22a76.058 76.058 0 0 1 -5.017-26.886c-.074-13.273-.142-19.569-.229-21.021a177.738 177.738 0 0 0 -179.483-167.983c-1.534.011-3.067.052-4.6.1-56.08 2.019-106.521 32.39-134.933 81.245a165.4 165.4 0 0 0 -3.9 160.287c1.482 3.7 18.025 45.266 19.641 62.634zm-5.368-216.888a153.244 153.244 0 0 1 51-52.875 147.931 147.931 0 0 1 73.976-22.407c1.416-.047 2.843-.086 4.294-.1q.941-.006 1.882-.006a165.736 165.736 0 0 1 165.51 156.676c.07 1.191.141 8.057.209 20.4a88.025 88.025 0 0 0 5.805 31.106l28.445 74.51h-53.009a6 6 0 0 0 -6 6v56.38a32.174 32.174 0 0 1 -33.1 32.163h-.155l-49.563-.26a5.919 5.919 0 0 0 -.669-.04h-.227a60.65 60.65 0 0 1 -60.186-55.385 6 6 0 1 0 -11.96.98 72.4 72.4 0 0 0 51.118 63.28 30.666 30.666 0 0 0 -8.758 21.57v48.62h-140.949c1.18-23.816 4.829-109.256-.347-164.834-1.84-19.831-19.808-64.4-20.572-66.287q-.11-.27-.244-.527a153.458 153.458 0 0 1 3.5-148.964z" fill="#00ac7d"></path><path d="m106.412 129.6a5.994 5.994 0 0 0 7.948-2.972c1.757-3.857 3.749-7.708 5.916-11.44a126.054 126.054 0 0 1 41.9-43.479 120.312 120.312 0 0 1 33.653-14.47 6 6 0 0 0 -3-11.618 132.282 132.282 0 0 0 -37.007 15.91 138.088 138.088 0 0 0 -45.922 47.627c-2.367 4.077-4.541 8.28-6.461 12.494a6 6 0 0 0 2.973 7.948z" fill="#00ac7d"></path><path d="m214.783 53.891c.186 0 .374-.009.563-.027 2.459-.229 4.976-.393 7.482-.489a6 6 0 1 0 -.456-11.991c-2.724.1-5.462.283-8.138.532a6 6 0 0 0 .549 11.975z" fill="#00ac7d"></path><path d="m214.113 81.043-2.778 16.483a91.665 91.665 0 0 0 -22.311 9.174l-13.772-9.687a6 6 0 0 0 -7.7.664l-19.61 19.61a6 6 0 0 0 -.665 7.695l9.666 13.741a90.175 90.175 0 0 0 -9.154 22.342l-16.481 2.778a6 6 0 0 0 -5 5.917v27.56a6 6 0 0 0 5 5.916l16.486 2.787a91.81 91.81 0 0 0 9.176 22.31l-9.689 13.775a6 6 0 0 0 .664 7.695l19.61 19.61a6 6 0 0 0 7.7.665l13.741-9.666a90.167 90.167 0 0 0 22.343 9.154l2.777 16.472a6 6 0 0 0 5.917 5h27.567a6 6 0 0 0 5.917-5l2.777-16.475a91.806 91.806 0 0 0 22.31-9.175l13.774 9.69a6 6 0 0 0 7.695-.665l19.61-19.61a6 6 0 0 0 .655-7.708l-9.909-14.007a90.007 90.007 0 0 0 9.136-22.325l16.739-2.784a6 6 0 0 0 5.016-5.919v-27.56a6 6 0 0 0 -5-5.916l-16.486-2.784a91.816 91.816 0 0 0 -9.176-22.3l9.689-13.775a6 6 0 0 0 -.663-7.694l-19.61-19.62a6 6 0 0 0 -7.748-.629l-13.726 9.872a89.937 89.937 0 0 0 -22.306-9.13l-2.777-16.481a6 6 0 0 0 -5.917-5h-27.57a6 6 0 0 0 -5.917 5zm8.393 22.4 2.6-15.407h17.424l2.6 15.407a6 6 0 0 0 4.68 4.875 77.387 77.387 0 0 1 25.81 10.568 6 6 0 0 0 6.76-.169l12.818-9.221 12.438 12.444-9.036 12.838a6 6 0 0 0 -.181 6.632 79.912 79.912 0 0 1 10.617 25.876 6 6 0 0 0 4.871 4.68l15.41 2.6v17.405l-15.664 2.606a6 6 0 0 0 -4.887 4.683 77.447 77.447 0 0 1 -10.56 25.811 6 6 0 0 0 .143 6.719l9.268 13.1-12.465 12.464-12.833-9.026a6 6 0 0 0 -6.632-.181 79.943 79.943 0 0 1 -25.887 10.622 6 6 0 0 0 -4.68 4.874l-2.6 15.4h-17.42l-2.6-15.4a6 6 0 0 0 -4.68-4.874 77.607 77.607 0 0 1 -25.809-10.569 6 6 0 0 0 -6.7.136l-12.833 9.026-12.478-12.477 9.027-12.833a6 6 0 0 0 .181-6.632 79.909 79.909 0 0 1 -10.616-25.886 6 6 0 0 0 -4.872-4.68l-15.41-2.605v-17.416l15.407-2.6a6 6 0 0 0 4.875-4.68 77.582 77.582 0 0 1 10.571-25.814 6 6 0 0 0 -.135-6.7l-9.028-12.834 12.475-12.475 12.833 9.028a6 6 0 0 0 6.636.178 79.682 79.682 0 0 1 25.882-10.614 6 6 0 0 0 4.68-4.875z" fill="#00ac7d"></path><path d="m198.6 141.788a6 6 0 0 0 8.331 1.612 48.039 48.039 0 1 1 -15.4 16.963 6 6 0 0 0 -10.545-5.728 60.091 60.091 0 1 0 19.229-21.177 6 6 0 0 0 -1.615 8.33z" fill="#00ac7d"></path><path d="m263.75 183.28a29.935 29.935 0 1 0 -29.94 29.93 29.974 29.974 0 0 0 29.94-29.93zm-47.87 0a17.935 17.935 0 1 1 17.93 17.93 17.955 17.955 0 0 1 -17.93-17.93z" fill="#00ac7d"></path></svg>