<svg xmlns="http://www.w3.org/2000/svg" width="158" height="158" viewBox="0 0 158 158" fill="none"><circle cx="79" cy="79" r="79" fill="url(#paint_2_linear)" fill-opacity="0.3"></circle><circle cx="79" cy="79" r="75" fill="white"></circle><path d="M95.1835 116C92.7948 116 90.4263 115.578 88.1103 114.736C77.9071 111.03 68.4364 104.993 60.7216 97.2783C53.0068 89.5637 46.97 80.0928 43.2637 69.8896C42.0726 66.6106 41.7211 63.2259 42.2193 59.8289C42.686 56.6471 43.9185 53.5581 45.7838 50.896C47.6572 48.2221 50.1549 45.9981 53.0067 44.4646C56.0478 42.8293 59.3671 42 62.8727 42C63.963 42 64.9053 42.7618 65.1338 43.8278L68.7634 60.766C68.9277 61.533 68.692 62.3311 68.1375 62.8858L61.9355 69.0877C67.7861 80.7199 77.2797 90.2135 88.912 96.0642L95.1139 89.8622C95.6685 89.3076 96.4668 89.0722 97.2336 89.2362L114.172 92.8658C115.238 93.0943 116 94.0366 116 95.1269C116 98.6325 115.17 101.952 113.535 104.993C112.001 107.845 109.777 110.343 107.104 112.216C104.442 114.081 101.353 115.314 98.1706 115.78C97.1735 115.927 96.1766 116 95.1835 116ZM61.0251 46.726C56.401 47.2364 52.2968 49.6601 49.5713 53.55C46.5065 57.9241 45.7918 63.304 47.6106 68.3107C54.7362 87.9265 70.0734 103.264 89.6892 110.389C94.6957 112.208 100.076 111.494 104.45 108.429C108.34 105.703 110.763 101.599 111.274 96.9748L97.4948 94.0222L91.0177 100.499C90.3285 101.188 89.2812 101.372 88.3994 100.957C74.642 94.4939 63.506 83.3579 57.0429 69.6006C56.6285 68.7185 56.8115 67.6713 57.5007 66.9822L63.9778 60.5052L61.0251 46.726Z" fill="#FF6733"></path><defs><linearGradient id="paint_2_linear" x1="79" y1="3.5" x2="79" y2="158" gradientUnits="userSpaceOnUse"><stop stop-color="#F8F7F7"></stop><stop offset="1" stop-color="#ACAAAA"></stop></linearGradient></defs></svg>