<svg xmlns="http://www.w3.org/2000/svg" width="158" height="158" viewBox="0 0 158 158" fill="none"><circle cx="79" cy="79" r="79" fill="url(#paint_env_linear)" fill-opacity="0.3"></circle><circle cx="79" cy="79" r="75" fill="white"></circle><path d="M106.199 56H51.8008C48.6022 56 46 58.6022 46 61.8008V95.4172C46 98.6158 48.6022 101.218 51.8008 101.218H106.199C109.398 101.218 112 98.6158 112 95.4172V61.8008C112 58.6022 109.398 56 106.199 56ZM105.442 59.8672L104.668 60.5118L81.3015 79.9691C79.9678 81.0795 78.0319 81.0795 76.6985 79.9691L53.3321 60.5118L52.5578 59.8672H105.442ZM49.8672 62.659L68.9056 78.5123L49.8672 91.1829V62.659ZM106.199 97.3508H51.8008C50.8665 97.3508 50.085 96.6846 49.906 95.8025L72.0063 81.0942L74.224 82.9409C75.6077 84.0931 77.304 84.6691 79.0001 84.6691C80.6963 84.6691 82.3924 84.0931 83.7762 82.9409L85.9939 81.0942L108.094 95.8024C107.915 96.6847 107.134 97.3508 106.199 97.3508ZM108.133 91.1829L89.0944 78.5124L108.133 62.659V91.1829Z" fill="#FF6733"></path><defs><linearGradient id="paint_env_linear" x1="79" y1="3.5" x2="79" y2="158" gradientUnits="userSpaceOnUse"><stop stop-color="#F8F7F7"></stop><stop offset="1" stop-color="#ACAAAA"></stop></linearGradient></defs></svg>