<svg xmlns="http://www.w3.org/2000/svg" xmlns:xlink="http://www.w3.org/1999/xlink" id="Layer_1" height="100" width="100" x="0px" y="0px" viewBox="0 0 492.308 492.308" style="enable-background:new 0 0 492.308 492.308;" xml:space="preserve">
<defs>
<linearGradient id="Gradient-1" x1="0" y1="0" x2="100%" y2="0">
<stop offset="0%" stop-color="#31077e"></stop>
<stop offset="100%" stop-color="#0a5ac7"></stop>
</linearGradient>
<style>
			.cls-1{
				fill:url(#Gradient-1);
				stroke:none;
            
			}
		</style>
</defs>
<g>
<g>
<path class="cls-1" d="M355.813,0H32.264v492.308h427.779V104.231L355.813,0z M361.582,33.615l64.846,64.846h-64.846V33.615z M440.351,472.615    H51.957V19.692h289.933v98.462h98.462V472.615z"></path>
</g>
</g>
<g>
<g>
<path class="cls-1" d="M315.543,331.885v109.947h92.308V331.885H315.543z M388.159,422.139h-52.923v-70.563h52.923V422.139z"></path>
</g>
</g>
<g>
<g>
<path class="cls-1" d="M199.995,272.808v169.024h92.308V272.808H199.995z M272.611,422.139h-52.923V292.5h52.923V422.139z"></path>
</g>
</g>
<g>
<g>
<path class="cls-1" d="M84.447,213.731v228.101h92.308V213.731H84.447z M157.062,422.139h-52.923V233.423h52.923V422.139z"></path>
</g>
</g>
<g>
</g>
<g>
</g>
<g>
</g>
<g>
</g>
<g>
</g>
<g>
</g>
<g>
</g>
<g>
</g>
<g>
</g>
<g>
</g>
<g>
</g>
<g>
</g>
<g>
</g>
<g>
</g>
<g>
</g>
</svg>